<svg id="Layer_1" data-name="Layer 1" xmlns="http://www.w3.org/2000/svg" viewBox="0 0 235.66 864.42"><defs><style>.cls-1{fill:none;}.cls-2{fill:#c7d432;}.cls-3{fill:#eeedee;}.cls-4{fill:#d7d6d6;}</style></defs><title>bottle-bg</title><polygon class="cls-1" points="135.47 178.45 135.47 178.45 135.47 178.45 135.47 178.45"/><path class="cls-1" d="M165.71,287.77l41.7,24.94C199.2,304.85,186.29,298.29,165.71,287.77Z" transform="translate(-9.91 -19.68)"/><path class="cls-2" d="M156.67,107.07l3.7-29.88C158.9,87.45,157.69,97.38,156.67,107.07Z" transform="translate(-9.91 -19.68)"/><path class="cls-3" d="M222.11,384.26c-.13-4.79-.22-9.58-.36-14.36-.51-32.05-2.59-46-14.34-57.19l-41.7-24.94c-15.3-7.82-19.87-46.44-20.32-89.64h0c-.67-62.81,7.35-135.31,3.71-136.94-6.15-2.76-39.75-1.54-44.07,0-2.88,1,4.67,87.26,6.17,124.29.37,9.13,8.81,67-17.86,105.22-6.52,9.35-67.73,30.95-66.83,96.15q-.89,15.09-1.58,29.95c-3.42,72.92-3.4,142-1.44,211.27,1.07,37.83,2.71,75.74,4.71,114.37C29.77,773,31.56,804,33.45,835.82q91.13,15.1,188.3,0,1.79-62.87,2.59-125.75.76-57.63.7-115.26Q224.94,489.54,222.11,384.26Z" transform="translate(-9.91 -19.68)"/><path class="cls-4" d="M245.41,471.68c-.34-27.14-1.23-54.28-3.23-81.35-1.52-20.55-2-45.15-11.81-63.89-4.83-9.25-17.39-20.72-36.29-34.4-17.3-12.47-27.71-23.74-30.52-33.8q-16.71-58-6.89-151.18c1-9.69,2.24-19.62,3.7-29.88.8-3.22,2.72-8,5.95-14.49,2.81-6,4.18-10.46,4.18-13.28.4-3.22-.32-9.33-2.54-17.52-1.61-5.93-.57-2.35-4.08-11.31-11.9,1.05-22.6.67-37.48-.14q-22.94-1.81-34.41.6c-.81,0-1.49,1.38-3.5,10.64C86.88,41,88.44,47,88.77,51.84,91.32,68.59,90,65.93,92,79.6q15.08,125.54-3,181.06-4.23,13.28-28.37,30.78-27.76,19.32-35,30.18Q11.12,343.34,10.52,449q-.61,53.73-.6,145.45.6,94.76.6,139.42-1.22,112.86,7.24,143a824.6,824.6,0,0,0,218,0c4.83-28.56,8.62-109.24,8.62-242C244.42,580.46,246.08,526.07,245.41,471.68ZM111.19,185.45c-1.5-37-9-123.29-6.17-124.29,4.31-1.51,37.92-2.74,44.07,0,3.64,1.64-4.37,74.14-3.71,136.94h0c.46,43.2,5,81.82,20.32,89.64,20.58,10.52,33.49,17.08,41.7,24.94,11.75,11.24,13.82,25.13,14.34,57.19.14,4.79.23,9.58.36,14.36q2.81,105.28,2.93,210.55.06,57.63-.7,115.26-.82,62.87-2.59,125.75-97.18,15.1-188.3,0C31.56,804,29.77,773,28.19,742.4c-2-38.63-3.64-76.55-4.71-114.37-2-69.29-2-138.35,1.44-211.27q.7-14.86,1.58-29.95c-.9-65.2,60.31-86.8,66.83-96.15C120,252.43,111.56,194.58,111.19,185.45Z" transform="translate(-9.91 -19.68)"/></svg>