<svg xmlns="http://www.w3.org/2000/svg" width="0.47in" height="1.71in" viewBox="0 0 33.5 122.89"><defs><style>.cls-1{fill:#c8d633;}</style></defs><title>looper_load_icon</title><g id="Fills_Up" data-name="Fills Up"><polygon class="cls-1" points="19.99 2.98 11.21 4.57 14.4 23.57 11.86 38.52 1.74 45.66 1.74 117.6 32.07 117.6 31.34 43.61 22.15 38.11 19.26 25.37 21.39 8.18 19.99 2.98"/></g><g id="Layer_1" data-name="Layer 1"><path d="M86,53.05c-.69-1.31-2.47-2.95-5.16-4.89-2.46-1.77-3.94-3.37-4.34-4.8q-2.75-9.52-.45-25.74a11,11,0,0,1,.85-2.06,5.17,5.17,0,0,0,.59-1.89,7.57,7.57,0,0,0-.36-2.49,8.59,8.59,0,0,0-.58-1.61,35.79,35.79,0,0,1-5.33,0,18.62,18.62,0,0,0-4.89.09c-.12,0-.21.2-.5,1.51a9.43,9.43,0,0,0,0,2.86c.36,2.38.17,2,.46,3.95q2.14,17.85-.43,25.74-.6,1.89-4,4.38a20.71,20.71,0,0,0-5,4.29q-2.06,3.09-2.15,18.1-.09,7.64-.09,20.68.08,13.47.09,19.82-.17,16,1,20.33a117.23,117.23,0,0,0,31,0c.69-4.06,1.23-15.53,1.23-34.41,0-7.73.24-15.46.14-23.2,0-3.86-.18-7.72-.46-11.57C87.47,59.21,87.39,55.71,86,53.05Zm-1.23,72.41a84,84,0,0,1-26.77,0c-1.32-22.14-2.3-41.58-1-63.83-.13-9.27,8.57-12.34,9.5-13.67,3.79-5.44,2.59-13.66,2.54-15-.21-5.26-1.29-17.53-.88-17.67.61-.21,5.39-.39,6.26,0s-3,29.48,2.36,32.21c7.11,3.63,7.84,3.93,8,11.68Q85.72,92.35,84.78,125.46Z" transform="translate(-54.66 -9.44)"/></g></svg>