<svg id="Layer_1" data-name="Layer 1" xmlns="http://www.w3.org/2000/svg" viewBox="0 0 871.93 255.5"><title>ryanlooper</title><path d="M909,177.36c-.61-.77-1.08.17-1.54.4-4.59,2.39-9.32,4.16-14.64,3.46-4.86-.64-7.48-3.59-7.62-8.47a34.21,34.21,0,0,1,1.48-10c2.11-7.73,5.36-15,8.28-22.47a11.23,11.23,0,0,0-1.87-12,29.86,29.86,0,0,0-3-3.12c-2.92-2.66-6.35-4.63-9.48-7-2.32-1.76-2.31-1.78-.74-4.1.62-.91,1.25-1.82,1.84-2.75,4.11-6.47,8-13,9.86-20.59a14.13,14.13,0,0,0-7.05-15.77,4.73,4.73,0,0,0-5.59.18c-8.57,6.42-15.23,14.36-19.23,24.37-1.77,4.43-.89,8.51,2.17,12.16a36,36,0,0,0,4.78,4.87c.82.67.87,1.14.22,2-8.88,11.71-18.65,22.57-30.39,31.51-6.39,4.87-13.15,9.11-20.95,11.4-4.72,1.39-9.49,1.94-14.2-.07a8.39,8.39,0,0,1-5-10.18,2.12,2.12,0,0,1,1.3-1.44,117.7,117.7,0,0,0,11.81-7.24c7.22-5,14.34-10.12,20.12-16.82,3.25-3.77,3.08-6.28-.41-9.89-3.28-3.39-7.31-5.52-11.65-7.26-7.38-3-13.63-1.6-19.23,4a78.12,78.12,0,0,0-17.45,25.9,6,6,0,0,1-2.7,3.17,202.11,202.11,0,0,1-23.92,11.72c-3.21,1.35-6.46,2.62-9.69,3.93a4.4,4.4,0,0,1,1.16-1.78c3.91-4.23,7.49-8.68,9.09-14.37s1.66-11.16-2.92-15.78a32,32,0,0,0-12.84-8.06,17.51,17.51,0,0,0-9-.5,64,64,0,0,0-15.17,5.32c-2.3,1.08-4.56,2.27-7,3.51,1.2-4.13,2.36-7.94,3.13-11.87a6.41,6.41,0,0,0-1.12-5.68,30.73,30.73,0,0,0-20.38-10.64c-2-.24-2.79.82-2.76,2.67,0,2.21.15,4.41.18,6.62.18,11.55-1.82,22.8-4.73,33.92a2.69,2.69,0,0,1-1.69,1.88,46.87,46.87,0,0,1-12.53,4.09c-3.28.52-6.6.92-10.06,0a36.91,36.91,0,0,0,2.79-5.52c3-7.8,0-13.85-7.94-16.3a7.72,7.72,0,0,1-2.87-1.05c-6.41-5.14-13.91-7.74-21.83-9.32-10.47-2.09-21.11-2.31-31.73-2.55a13.19,13.19,0,0,1-7.07-1.69,15.72,15.72,0,0,0-15-1.34c-2,.82-4,1.47-6,2.32a19.23,19.23,0,0,0-3.4,2c-1.79,1.27-1.75,2.12.16,3.14,1.58.84,3.25,1.5,4.85,2.31a22.13,22.13,0,0,1,5.71,3.54c-4.36-.65-8.28-.94-12.19-1.24a6.19,6.19,0,0,0-3.9.9,45.58,45.58,0,0,0-15.92,15.38,11,11,0,0,1-1.73,2q-13.6,13.51-27.23,27c-7.1,7-14.67,13.42-23.35,18.41a32.76,32.76,0,0,1-10.67,4.33c-4,.7-6.81-1.46-7-5.55a55.78,55.78,0,0,1,.21-8.9c1.18-11,4.42-21.42,8.28-31.72a13.27,13.27,0,0,1,4-5.61c16.83-14.5,31.74-30.71,43.64-49.54C535,78.94,539.94,70,542.85,60a8,8,0,0,0-.86-6.93,31.64,31.64,0,0,0-14.75-12.21,4.54,4.54,0,0,0-5,.75,62.07,62.07,0,0,0-6.25,6,254,254,0,0,0-28.85,39.58c-11.43,19-20.94,38.78-26.59,60.29a3.73,3.73,0,0,1-1.38,2,98.52,98.52,0,0,1-19.68,12.92c-9.37,4.48-18.86,8.76-29.73,5.87-.45-.12-1-.28-1.27.3a1.29,1.29,0,0,0,.28,1.35,4.35,4.35,0,0,0,2,1.47,17.47,17.47,0,0,0,7.05,1.39c7.57,0,14.7-2.15,21.74-4.64a101.4,101.4,0,0,0,18.11-8.64,3.48,3.48,0,0,1,.12.73c-.06.55-.15,1.09-.23,1.64-1,7.32-1.86,14.65-1.06,22.07,1.11,10.37,8.16,15.88,18.44,14.43,9.68-1.37,18.12-5.63,25.95-11.19,11-7.8,20.23-17.53,29.59-27.12,2.87-2.94,5.69-5.94,8.83-9.22a30.84,30.84,0,0,0,2.63,14c3.59,7.73,9.91,11.59,18,10.86a28.77,28.77,0,0,0,10.63-3.17c11.73-6.05,20-15.44,25.73-27.15,3.38-6.88,5.26-14.08,3.62-21.81-.24-1.11.33-1.15,1-1.2,1.86-.13,3.72-.21,5.58-.36,6.81-.53,13.61-1.24,20.44-.22.66.1,1.64-.21,1.9.45s-.66,1.24-1.11,1.79c-4.2,5.14-8.16,10.44-10.51,16.74s-2.49,12.68,1.41,18.6c5.42,8.22,14,10,22.11,4.62a57.58,57.58,0,0,0,10.62-9.2,2.48,2.48,0,0,1,2.46-1c6.07,1,12-.15,17.75-1.88,2.65-.79,5.25-1.78,8.2-2.79-3,8.87-5.81,17.41-8.67,25.95-5.35,16-10.36,32-11.64,48.94-.66,8.73-.65,17.4,3.08,25.61,2.29,5.05,5.35,9.49,10.2,12.44.53.32,1.18.77,1.7.31s0-1.16-.34-1.63c-2.62-4.06-3.59-8.61-4.06-13.32-.94-9.34-.24-18.63.95-27.88a81.07,81.07,0,0,1,5-20.44,11.42,11.42,0,0,1,3.05-5c-.35,1.86-.62,3.27-.89,4.69-.94,5-2.32,9.95-2.69,15.06-.05.73-.34,1.62.74,2.35,4.47-16.13,10.8-31.43,16.43-47,.81.44.83,1.2,1.15,1.79,2.45,4.54,6,7.13,11.4,6.46,1.85-.23,3.71-.38,5.55-.64,17-2.45,32.93-8.33,48.34-15.73a212.13,212.13,0,0,0,19.06-10.41c.21,5.46,1.81,9,5.59,12.36a25.49,25.49,0,0,0,6.91,4.49c9.62,4.19,19.24,3.57,28.76-.27,16.29-6.56,29.28-17.73,41.42-30a163.36,163.36,0,0,0,12-13.67c.31-.39.55-1.06,1.22-.36,2.79,2.95,5.47,5.89,4.59,10.5-1,5.15-2.32,10.21-3.59,15.29-1.8,7.23-3.62,14.47-3.07,22,.57,7.76,5.34,13.62,12.52,15.06a27.79,27.79,0,0,0,18.32-2.44,14.67,14.67,0,0,0,5.76-4.61C908.86,178.54,909.42,177.93,909,177.36Zm-90.61-56.22c.86-.49,2.09-1.49,3-.44s-.1,2.2-.69,3.17a29.44,29.44,0,0,1-6.15,6.66,125.56,125.56,0,0,1-13.59,10.11,1.29,1.29,0,0,1-1.32.19C804.27,132.61,810.2,125.81,818.36,121.14Zm-327.1,1.14a281.78,281.78,0,0,1,25.13-41A217.88,217.88,0,0,1,530.25,64c.44-.5.76-1.16,1.52-1.35.44.91-.17,1.62-.44,2.34-5,13.44-12.63,25.36-21.3,36.67a233,233,0,0,1-18.29,21.1l-1.2,1.46A2.32,2.32,0,0,1,491.26,122.28ZM567,164.46a16,16,0,0,1-11.33,3c-3.29-.33-4.84-1.62-5.56-4.84a18.14,18.14,0,0,1,.9-10.55,49.36,49.36,0,0,1,18.51-24,33.52,33.52,0,0,1,7.84-3.61c1-.36,1.4.16,1.9.72A15,15,0,0,1,583,135.47C581.91,147.46,576.81,157.3,567,164.46Zm76.3-14c-2.63,3.12-5.35,6.1-9.33,7.58a1.69,1.69,0,0,1-2.54-1.14,10,10,0,0,1-.18-6.08A28.73,28.73,0,0,1,636.37,140a25.05,25.05,0,0,0,6.86,9.46C643.68,149.85,643.55,150.16,643.26,150.5Zm6.47-12c-.45,1.63-.6,4-2,4.4-1.21.31-2.75-1.57-3.82-2.82-4.51-5.29-3.81-4.41.94-7.76,1.17-.83,3.12-2.33,3.69-1.81,1.36,1.24,1.77,3.34,1.74,5.36C650.08,136.71,650,137.6,649.74,138.46ZM743.1,133c-1,3.29-3.32,5.72-5.8,7.92a67.72,67.72,0,0,1-40.83,17.4,39.64,39.64,0,0,1,8.44-10.75c8.37-8,17.82-14.08,29.1-17.11a18.85,18.85,0,0,1,7-.71C743.06,130,743.73,131,743.1,133Zm130.3-23.9a11.25,11.25,0,0,1,.62-7.92A30.49,30.49,0,0,1,880.56,92c.75-.74,1.68-2,2.69-1.33s.07,1.94-.36,2.85a119.31,119.31,0,0,1-7.47,12.62C874.84,107,874.22,107.9,873.4,109.13Z" transform="translate(-37.21 -40.43)"/><path d="M106.69,194.35a25.26,25.26,0,0,1-3.69-.42c-5.66-1.4-9.08-6.22-9.17-13a65.64,65.64,0,0,1,2-14.73c1.67-7.74,3.81-15.38,4.69-23.28.44-4,.55-7.9-2.79-10.91-1.28-1.16-2.57-2.31-4-3.34-3.21-2.4-6.76-4.26-10.21-6.41l1.28-1.95c4-6.15,7.31-12.65,8.92-19.87.82-3.67,1.9-7.41.32-11.17A24.38,24.38,0,0,0,85.55,78.6c-4.46-3.14-7.26-2.76-10.65,1.54-5.26,6.68-8.14,14.47-10.28,22.59a37.86,37.86,0,0,0-1.19,7.76c-.31,6.2,2.73,10.51,7.88,13.51,1.39.81,1.4,1.37.4,2.57A95.38,95.38,0,0,1,61.94,137c-7.45,6.62-15.84,11.94-24.21,17.29.29.6.9.12,1.29.38.67-.17,1.34-.3,2-.52C55.39,149.5,67.71,141.75,77.35,130c.72-.88,1.15-1,2.09-.19a11.16,11.16,0,0,1,4,9,53.06,53.06,0,0,1-1,9.45c-1.63,9.37-3.28,18.71-3.06,28.33.2,8.5,7.59,18.22,16.73,20.72a13.69,13.69,0,0,0,11-1.22c.45-.27,1.11-.56.91-1.19C107.81,194.38,107.18,194.4,106.69,194.35ZM78.27,116.76c-.79,1.48-1.19,1-1.88,0s-.53-2.4-.41-3.61c.52-5.21,4.61-17.17,7.73-22.41a38.49,38.49,0,0,1-1.07,15.78A55.63,55.63,0,0,1,78.27,116.76Z" transform="translate(-37.21 -40.43)"/><path d="M37.73,154.28c-.18.16-.5.3-.52.47,0,.36.32.36.56.32.44-.07.94,0,1.26-.42C38.56,154.67,37.91,155.26,37.73,154.28Z" transform="translate(-37.21 -40.43)"/><path d="M37.73,154.28c.18,1,.82.39,1.29.38C38.63,154.4,38,154.88,37.73,154.28Z" transform="translate(-37.21 -40.43)"/><path d="M339.13,136.84c-.52-.11-.33-.61-.52-.91C338.53,136.38,338.19,137,339.13,136.84Z" transform="translate(-37.21 -40.43)"/><path d="M338.46,137.34c.17.19.59-.11.67-.49-.94.14-.6-.46-.52-.91A1,1,0,0,0,338.46,137.34Z" transform="translate(-37.21 -40.43)"/><path d="M491.26,122.28a2.32,2.32,0,0,0-.72,1.93l1.2-1.46C491.33,122.85,491.13,122.73,491.26,122.28Z" transform="translate(-37.21 -40.43)"/><path d="M491.74,122.76l-.48-.48C491.13,122.73,491.33,122.85,491.74,122.76Z" transform="translate(-37.21 -40.43)"/><path d="M380.35,183.36c-.27-1.5-2-.85-3.2-.94a6.46,6.46,0,0,0-.83,0,7.63,7.63,0,0,1-8.21-5.81c-1-3.5-.48-7,.24-10.43,1.74-8.31,4.67-16.28,7-24.41,2.33-8,4.48-15.93,4.78-24.29a4.07,4.07,0,0,0-1.82-3.68c-5.55-4.21-9.42-4.29-14.87,0-8.83,6.92-16.62,15-24.37,23-.08.38-.5.68-.67.49a1,1,0,0,1,.15-1.4c.8-6.79,2.34-13.45,3.7-20.14.73-3.57.39-4.22-3-5.66a16.13,16.13,0,0,0-1.94-.68c-4.45-1.26-5.12-1-7.13,3.11a92.31,92.31,0,0,0-7.55,23.76,19.1,19.1,0,0,1-6.11,11c-6.51,6.1-13,12.21-20.78,16.66-4,2.27-8.13,4.11-12.84,4.13-3.26,0-5-1.38-5.76-4.51a17.12,17.12,0,0,1-.11-6.58,79.8,79.8,0,0,1,4.51-16.52q3.6-9.78,7.46-19.47a5.61,5.61,0,0,0-1.58-6.72,22.25,22.25,0,0,0-9.7-5.28,3.19,3.19,0,0,0-3.63,1.21,80.16,80.16,0,0,0-4.57,6.69c-4.71-4.37-9.92-5.11-15.47-2.07-12.09,6.61-21.91,15.71-28.15,28a27,27,0,0,1-8,9.77c-5.36,4.07-10.4,8.54-15.63,13.23,0-1,0-1.66,0-2.33.17-7.45.62-14.91-.88-22.29-1.23-6.07-4.22-10.81-10.5-12.64a20.33,20.33,0,0,0-14.55.89,65.28,65.28,0,0,0-13.35,8.6c-7.91,6.26-15,13.46-22.8,19.85a26.72,26.72,0,0,1-4.8,3.37c.13-1.54.17-2.78.36-4,.9-5.82,2.9-11.33,4.87-16.85,2.27-6.35,4.69-12.65,7-19,1-2.88.61-3.58-2.41-4.3a17.28,17.28,0,0,0-3.67-.58c-10.77-.16-10.28-2.32-15.88,8.67a127.17,127.17,0,0,0-10.25,29.81c-1.51,6.68.36,12.43,4.67,17.46,3.7,4.32,8.66,5.51,14.05,3.67a33.1,33.1,0,0,0,9.45-5.45c6.09-4.7,11.39-10.23,16.71-15.75,4.59-4.77,8.9-9.84,14.17-13.91,4-3.05,7.44-2.3,9.93,2.07a23.37,23.37,0,0,1,2.52,7.39c1.81,9.74,1.16,19.53.71,29.32a3.82,3.82,0,0,1-1.12,2.35,110.74,110.74,0,0,0-8.26,10.87A242.28,242.28,0,0,0,150.9,250.6c-4.1,12.38-7.59,24.92-9,37.95-.4,3.79.18,4.76,3.76,6a34.39,34.39,0,0,0,11,1.42,7.17,7.17,0,0,0,7.23-4.81c5.21-13,11.38-25.51,16.56-38.49,9.26-23.23,16.91-46.9,20.22-71.8a7.15,7.15,0,0,1,1.71-3.86c3-3.58,6.14-7.1,9.41-10.47a143.53,143.53,0,0,1,12.24-11.31c2.62,5.44,7.13,8.06,12.52,9.6a9.28,9.28,0,0,0,9.21-2A103.67,103.67,0,0,0,258,150.08c.28-.33.42-.95,1.28-.64a44.32,44.32,0,0,0-.58,10c.47,7.26,4.67,12.7,11.63,14.68A36.45,36.45,0,0,0,294,172.71c9.16-3.58,16.37-9.82,22.86-17l3.17-3.53c-.08,1.72-.16,3-.18,4.19-.08,3.47.47,6.74,3.06,9.34,2,2.06,3.62,2.29,6.1.79a29.13,29.13,0,0,0,6.33-5.62c7.93-8.78,14.57-18.56,21.75-27.93a16.07,16.07,0,0,1,3.18-3.67c-.28.83-.4,1.28-.57,1.7A88,88,0,0,0,353,157.27c-.57,6.46-.61,12.91,2.38,18.86,5.39,10.74,12.73,12.38,22.39,9.49C378.89,185.27,380.58,184.67,380.35,183.36ZM184.84,203.76q-.15.55-.29,1.11c-.46,1.94-.76,3.92-1.16,5.87q-.72,3.57-1.56,7.13-1.66,7.08-3.74,14.06t-4.53,13.81q-2.46,6.86-5.27,13.58-1.44,3.44-3,6.84c-.44-.14-.44-.14-.46-.87A158.06,158.06,0,0,1,179,214.41q1.39-3,2.88-6,.74-1.46,1.5-2.92l.78-1.48c.13-.24.28-.86.57-.94S184.89,203.59,184.84,203.76ZM265,125c-5.44,10-12.24,19-21.56,25.75,2.5-9.26,6.9-17.28,14.43-23.34a18.71,18.71,0,0,1,5.92-3.3,1.83,1.83,0,0,1,1.19,0C265.44,124.3,265.2,124.69,265,125Z" transform="translate(-37.21 -40.43)"/></svg>